<svg width="24" height="24" viewBox="0 0 24 24" fill="none" xmlns="http://www.w3.org/2000/svg">
<path d="M17.2532 12.4904C16.9692 14.8554 15.4202 15.8004 14.7512 16.4864C14.0812 17.1744 14.2012 17.3114 14.2462 18.3204C14.2537 18.4452 14.2356 18.5702 14.1929 18.6878C14.1503 18.8054 14.084 18.9129 13.9982 19.0039C13.9124 19.0949 13.8088 19.1673 13.694 19.2168C13.5791 19.2662 13.4553 19.2916 13.3302 19.2914H10.6722C10.5472 19.2911 10.4236 19.2655 10.3089 19.2159C10.1942 19.1663 10.0908 19.0939 10.0049 19.003C9.91913 18.9122 9.85273 18.8048 9.8098 18.6874C9.76687 18.57 9.7483 18.4451 9.75523 18.3204C9.75523 17.3304 9.84723 17.1004 9.25123 16.4864C8.49123 15.7264 6.70323 14.6534 6.70323 11.7024C6.69866 10.9694 6.846 10.2434 7.13594 9.57012C7.42589 8.89689 7.85215 8.29102 8.38787 7.7907C8.9236 7.29039 9.55715 6.90648 10.2486 6.66318C10.9401 6.41987 11.6744 6.32245 12.4054 6.37705C13.1364 6.43165 13.8481 6.63708 14.4958 6.98041C15.1434 7.32373 15.7129 7.7975 16.1684 8.37184C16.6238 8.94619 16.9554 9.60866 17.1421 10.3175C17.3288 11.0263 17.3666 11.7662 17.2532 12.4904Z" stroke="#999999" stroke-width="1.5" stroke-linecap="round" stroke-linejoin="round"/>
<path d="M10.4609 19.236V20.748C10.4609 21.161 10.6909 21.5 10.9739 21.5H13.0269C13.3119 21.5 13.5409 21.16 13.5409 20.748V19.236M11.2209 8.69595C10.6305 8.69622 10.0643 8.93097 9.64686 9.34858C9.22943 9.7662 8.99494 10.3325 8.99494 10.923M19.3329 11.904H21.1669M17.4869 5.89195L18.7879 4.59095M18.4869 17L19.7879 18.3M12.0009 2.37695V3.85995M5.24094 4.58995L6.53294 5.89195M4.24094 18.3L5.53294 17M4.66894 11.904H2.83594" stroke="#999999" stroke-width="1.5" stroke-linecap="round" stroke-linejoin="round"/>
</svg>
